<?xml version="1.0" encoding="utf-8"?>
<!-- Generator: Adobe Illustrator 17.0.0, SVG Export Plug-In . SVG Version: 6.00 Build 0)  -->
<!DOCTYPE svg PUBLIC "-//W3C//DTD SVG 1.1//EN" "http://www.w3.org/Graphics/SVG/1.1/DTD/svg11.dtd">
<svg version="1.1" id="Layer_2" xmlns="http://www.w3.org/2000/svg" xmlns:xlink="http://www.w3.org/1999/xlink" x="0px" y="0px"
	 width="50px" height="50px" viewBox="0 0 50 50" enable-background="new 0 0 50 50" xml:space="preserve">
<path fill="#1A4260" d="M47.981,46.152l0.185-1.33c-1.578-0.818-4.132-1.565-6.512-1.956c-1.69-0.312-3.045-3.178-3.645-5.065
	c1.709-1.002,3.08-2.934,4.24-5.564c0.501-0.38,0.952-1.141,1.156-2.015c0.292-1.251-0.05-2.27-0.762-2.267
	c-0.005-0.003-0.012,0-0.088,0.005c0.018-0.005-0.035,0.003-0.09,0.014c0.245-1.637,0.406-3.211,0.11-4.746
	c-0.046-0.277-0.125-0.571-0.237-0.869c-0.569-1.958-3.026-4.288-7.171-4.288c-4.149,0-6.605,2.33-7.173,4.288
	c-0.116,0.298-0.195,0.592-0.237,0.869c-0.298,1.535-0.135,3.109,0.107,4.746c-0.046-0.011-0.094-0.014-0.09-0.014
	c-0.062-0.005-0.075-0.008-0.087-0.005c-0.711-0.003-1.052,1.017-0.759,2.267c0.204,0.873,0.654,1.634,1.155,2.015
	c1.161,2.629,2.531,4.561,4.239,5.563c-0.599,1.887-1.956,4.755-3.645,5.066c-2.899,0.476-6.082,1.479-7.406,2.497
	c-0.869,0.624-0.94,1.067-0.94,2.852h24.713L47.981,46.152z"/>
<path fill="#1A4260" d="M1.34,46.152l-0.185-1.33c1.578-0.818,4.132-1.565,6.512-1.956c1.69-0.312,3.045-3.178,3.645-5.065
	c-1.709-1.002-3.08-2.934-4.24-5.564c-0.501-0.38-0.953-1.141-1.156-2.015c-0.292-1.251,0.05-2.27,0.762-2.267
	c0.005-0.003,0.012,0,0.088,0.005c-0.018-0.005,0.035,0.003,0.09,0.014c-0.245-1.637-0.406-3.211-0.11-4.746
	c0.046-0.277,0.125-0.571,0.237-0.869c0.569-1.958,3.026-4.288,7.171-4.288c4.149,0,6.605,2.33,7.173,4.288
	c0.116,0.298,0.195,0.592,0.237,0.869c0.298,1.535,0.135,3.109-0.107,4.746c0.046-0.011,0.094-0.014,0.09-0.014
	c0.062-0.005,0.075-0.008,0.087-0.005c0.711-0.003,1.052,1.017,0.759,2.267c-0.204,0.873-0.654,1.634-1.155,2.015
	c-1.161,2.629-2.531,4.561-4.239,5.563c0.599,1.887,1.956,4.755,3.645,5.066c2.899,0.476,6.082,1.479,7.406,2.497
	c0.869,0.624,0.94,1.067,0.94,2.852H4.279L1.34,46.152z"/>
<path fill="#3174B7" d="M43.156,45.205c-1.764-1.355-6-2.69-9.858-3.323c-2.249-0.415-4.053-4.229-4.851-6.741
	c2.274-1.333,4.099-3.905,5.643-7.406c0.666-0.506,1.268-1.519,1.539-2.681c0.389-1.665-0.067-3.022-1.015-3.017
	c-0.006-0.004-0.016,0-0.117,0.006c0.024-0.006-0.047,0.004-0.119,0.018c0.326-2.179,0.541-4.273,0.146-6.317
	c-0.061-0.369-0.166-0.76-0.316-1.156C33.45,11.98,30.179,8.88,24.663,8.88c-5.522,0-8.791,3.101-9.546,5.707
	c-0.154,0.397-0.259,0.788-0.316,1.156c-0.397,2.043-0.18,4.137,0.142,6.317c-0.061-0.014-0.126-0.018-0.12-0.018
	c-0.083-0.006-0.099-0.01-0.115-0.006c-0.946-0.004-1.399,1.353-1.01,3.017c0.271,1.162,0.871,2.175,1.537,2.681
	c1.545,3.499,3.368,6.071,5.641,7.404c-0.798,2.512-2.604,6.328-4.852,6.743c-3.858,0.634-8.094,1.968-9.856,3.323
	c-1.156,0.83-1.252,1.42-1.252,3.795h39.49C44.406,46.624,44.308,46.035,43.156,45.205z"/>
<path fill="#3174B7" d="M43.093,50H6.845c-3.764,0-6.827-3.065-6.827-6.832V6.891c0-3.767,3.062-6.832,6.827-6.832h36.247
	c3.764,0,6.826,3.065,6.826,6.832v36.277C49.919,46.935,46.856,50,43.093,50z M6.845,2.267c-2.547,0-4.62,2.074-4.62,4.624v36.277
	c0,2.549,2.073,4.623,4.62,4.623h36.247c2.547,0,4.619-2.074,4.619-4.623V6.891c0-2.549-2.072-4.624-4.619-4.624H6.845z"/>
</svg>
