<?xml version="1.0" encoding="utf-8"?>
<!-- Generator: Adobe Illustrator 17.0.0, SVG Export Plug-In . SVG Version: 6.00 Build 0)  -->
<!DOCTYPE svg PUBLIC "-//W3C//DTD SVG 1.1 Tiny//EN" "http://www.w3.org/Graphics/SVG/1.1/DTD/svg11-tiny.dtd">
<svg version="1.1" baseProfile="tiny" id="fill_x5F_03"
	 xmlns="http://www.w3.org/2000/svg" xmlns:xlink="http://www.w3.org/1999/xlink" x="0px" y="0px" width="16px" height="16.5px"
	 viewBox="0 0 16 16.5" xml:space="preserve">
<path fill="RGBA(9, 25, 45, 1)" d="M14.125,10.292c0,3.383-2.742,6.125-6.125,6.125c-3.383,0-6.125-2.742-6.125-6.125
	c0-2.266,1.234-4.24,3.063-5.299V2.125c-0.564,0-1.021-0.457-1.021-1.021s0.457-1.021,1.021-1.021h6.125
	c0.564,0,1.021,0.457,1.021,1.021s-0.457,1.021-1.021,1.021v2.868C12.891,6.053,14.125,8.026,14.125,10.292z M9.531,6.208
	c-0.282,0-0.51,0.229-0.51,0.51c0,0.282,0.228,0.51,0.51,0.51c0.282,0,0.51-0.228,0.51-0.51C10.042,6.437,9.814,6.208,9.531,6.208z
	 M10.722,8.931C9.361,8.931,9.361,7.572,8,7.572c-1.361,0-1.361,1.359-2.722,1.359c-0.372,0-0.725-0.075-1.047-0.209
	c-0.202,0.483-0.314,1.014-0.314,1.57c0,2.255,1.828,4.083,4.083,4.083s4.083-1.828,4.083-4.083c0-0.556-0.112-1.087-0.314-1.57
	C11.447,8.856,11.094,8.931,10.722,8.931z M9.531,12.333c-0.282,0-0.51-0.228-0.51-0.51c0-0.282,0.228-0.51,0.51-0.51
	c0.282,0,0.51,0.229,0.51,0.51C10.042,12.105,9.814,12.333,9.531,12.333z M8.51,10.292c-0.282,0-0.51-0.229-0.51-0.51
	c0-0.282,0.229-0.51,0.51-0.51c0.282,0,0.51,0.229,0.51,0.51C9.021,10.063,8.793,10.292,8.51,10.292z M6.469,11.313
	c-0.282,0-0.51-0.229-0.51-0.51c0-0.282,0.228-0.51,0.51-0.51s0.51,0.229,0.51,0.51C6.979,11.084,6.751,11.313,6.469,11.313z"/>
</svg>
