<?xml version="1.0" encoding="utf-8"?>
<!-- Generator: Adobe Illustrator 17.0.0, SVG Export Plug-In . SVG Version: 6.00 Build 0)  -->
<!DOCTYPE svg PUBLIC "-//W3C//DTD SVG 1.1 Tiny//EN" "http://www.w3.org/Graphics/SVG/1.1/DTD/svg11-tiny.dtd">
<svg version="1.1" baseProfile="tiny" id="fill_x5F_03"
	 xmlns="http://www.w3.org/2000/svg" xmlns:xlink="http://www.w3.org/1999/xlink" x="0px" y="0px" width="16px" height="16.5px"
	 viewBox="0 0 16 16.5" xml:space="preserve">
<path fill="RGBA(122, 43, 193, 1)" d="M14.125,10.208c0,3.383-2.742,6.125-6.125,6.125c-3.383,0-6.125-2.742-6.125-6.125
	c0-2.266,1.234-4.24,3.063-5.299V2.042c-0.564,0-1.021-0.457-1.021-1.021S4.374,0,4.937,0h6.125c0.564,0,1.021,0.457,1.021,1.021
	s-0.457,1.021-1.021,1.021V4.91C12.891,5.969,14.125,7.943,14.125,10.208z M9.531,6.125c-0.282,0-0.51,0.229-0.51,0.51
	c0,0.282,0.228,0.51,0.51,0.51c0.282,0,0.51-0.228,0.51-0.51C10.042,6.354,9.814,6.125,9.531,6.125z M10.722,8.848
	C9.361,8.848,9.361,7.489,8,7.489c-1.361,0-1.361,1.359-2.722,1.359c-0.372,0-0.725-0.075-1.047-0.209
	c-0.202,0.483-0.314,1.014-0.314,1.57c0,2.255,1.828,4.083,4.083,4.083s4.083-1.828,4.083-4.083c0-0.556-0.112-1.087-0.314-1.57
	C11.447,8.773,11.094,8.848,10.722,8.848z M9.531,12.25c-0.282,0-0.51-0.228-0.51-0.51c0-0.282,0.228-0.51,0.51-0.51
	c0.282,0,0.51,0.229,0.51,0.51C10.042,12.022,9.814,12.25,9.531,12.25z M8.51,10.208C8.229,10.208,8,9.98,8,9.698
	c0-0.282,0.229-0.51,0.51-0.51c0.282,0,0.51,0.229,0.51,0.51C9.021,9.98,8.793,10.208,8.51,10.208z M6.469,11.229
	c-0.282,0-0.51-0.229-0.51-0.51c0-0.282,0.228-0.51,0.51-0.51s0.51,0.229,0.51,0.51C6.979,11.001,6.751,11.229,6.469,11.229z"/>
</svg>
