<?xml version="1.0" ?><!DOCTYPE svg  PUBLIC '-//W3C//DTD SVG 1.1//EN'  'http://www.w3.org/Graphics/SVG/1.1/DTD/svg11.dtd'><svg height="50px" id="Capa_1" style="enable-background:new 0 0 100 50;" version="1.1" viewBox="0 0 100 50" width="100px" xml:space="preserve" xmlns="http://www.w3.org/2000/svg" xmlns:xlink="http://www.w3.org/1999/xlink"><g><path d="M35,20H5c-2.762,0-5,2.238-5,5s2.238,5,5,5h30c2.762,0,5-2.238,5-5S37.762,20,35,20z M35,40H5c-2.762,0-5,2.238-5,5   s2.238,5,5,5h30c2.762,0,5-2.238,5-5S37.762,40,35,40z M97,20H80V3c0-2.762-2.238-3-5-3s-5,0.238-5,3v17H53.5c-2.762,0-3,2.238-3,5   s0.238,5,3,5H70v17c0,2.762,2.238,3,5,3s5-0.238,5-3V30h17c2.762,0,3-2.238,3-5S99.762,20,97,20z M35,0H5C2.238,0,0,2.238,0,5   s2.238,5,5,5h30c2.762,0,5-2.238,5-5S37.762,0,35,0z"/></g><g/><g/><g/><g/><g/><g/><g/><g/><g/><g/><g/><g/><g/><g/><g/></svg>