<?xml version="1.0" encoding="utf-8"?>
<!-- Generator: Adobe Illustrator 17.0.0, SVG Export Plug-In . SVG Version: 6.00 Build 0)  -->
<!DOCTYPE svg PUBLIC "-//W3C//DTD SVG 1.1 Tiny//EN" "http://www.w3.org/Graphics/SVG/1.1/DTD/svg11-tiny.dtd">
<svg version="1.1" baseProfile="tiny" id="Layer_2" xmlns="http://www.w3.org/2000/svg" xmlns:xlink="http://www.w3.org/1999/xlink"
	 x="0px" y="0px" width="50px" height="50px" viewBox="0 0 50 50" xml:space="preserve">
<path fill="#3174B7" d="M47.792,13.222v29.889c0,1.92-1.176,3.567-2.844,4.266c-0.031-1.822-0.226-2.39-1.275-3.146
	c-1.808-1.39-6.151-2.759-10.106-3.409c-2.158-0.398-3.917-3.853-4.804-6.407c2.253-1.395,4.071-3.99,5.615-7.493
	c0.683-0.519,1.3-1.558,1.578-2.75c0.399-1.707-0.068-3.099-1.04-3.095c-0.006-0.004-0.017,0-0.12,0.006
	c0.025-0.006-0.048,0.004-0.123,0.019c0.334-2.235,0.554-4.383,0.149-6.479c-0.062-0.378-0.17-0.779-0.324-1.186
	c-0.777-2.673-4.129-5.853-9.784-5.853c-5.661,0-9.012,3.18-9.786,5.853c-0.158,0.407-0.266,0.808-0.324,1.186
	c-0.407,2.096-0.185,4.244,0.145,6.479c-0.062-0.014-0.129-0.019-0.122-0.019c-0.085-0.006-0.102-0.01-0.118-0.006
	c-0.969-0.004-1.434,1.388-1.036,3.095c0.278,1.192,0.893,2.231,1.576,2.75c1.545,3.502,3.363,6.097,5.614,7.492
	c-0.887,2.554-2.647,6.01-4.804,6.408c-3.955,0.65-8.298,2.019-10.104,3.409c-0.981,0.705-1.214,1.256-1.266,2.8
	c-1.314-0.816-2.199-2.261-2.199-3.919V6.832c0-2.549,2.073-4.624,4.621-4.624h30.522V0H6.913C3.147,0,0.084,3.065,0.084,6.832
	v36.279c0,3.767,3.063,6.832,6.829,6.832h36.259c3.765,0,6.828-3.065,6.828-6.832V13.222H47.792z"/>
<polygon fill="#3174B7" points="40.901,15.124 40.901,9.516 35.297,9.516 35.297,6.713 40.901,6.713 40.901,1.104 43.702,1.104 
	43.702,6.713 49.309,6.713 49.309,9.516 43.702,9.516 43.702,15.124 "/>
</svg>
